<svg width="10585" height="3742" viewBox="0 0 10585 3742" fill="none" xmlns="http://www.w3.org/2000/svg">
<path d="M1495.54 810.006H1763.52C1818.34 812.036 1851.83 826.247 1864.01 852.639C1874.16 871.925 1879.24 900.347 1879.24 937.905V1272.88C1879.24 1305.36 1865.03 1336.32 1836.61 1365.76C1751.34 1454.07 1623.44 1498.23 1452.91 1498.23C1301.66 1498.23 1170.21 1441.38 1058.55 1327.69C946.894 1212.99 891.065 1074.94 891.065 913.543C891.065 752.147 947.909 617.649 1061.6 510.051C1175.29 401.438 1309.28 347.132 1463.57 347.132C1583.35 347.132 1696.53 386.72 1803.11 465.896C1830.52 486.197 1844.22 509.036 1844.22 534.413C1844.22 558.775 1832.55 587.197 1809.2 619.679C1769.61 673.478 1733.58 700.378 1701.09 700.378C1681.81 700.378 1650.85 686.674 1608.22 659.267C1565.58 630.845 1514.83 616.634 1455.95 616.634C1378.81 616.634 1310.29 644.041 1250.4 698.855C1190.51 752.654 1160.57 823.709 1160.57 912.021C1160.57 999.317 1191.02 1073.93 1251.92 1135.84C1312.83 1196.75 1381.85 1227.2 1459 1227.2C1514.83 1227.2 1565.07 1218.07 1609.74 1199.79V1033.83H1489.45C1457.98 1033.83 1435.65 1029.77 1422.46 1021.65C1409.26 1013.53 1400.63 1001.85 1396.57 986.629C1392.51 970.388 1390.48 949.071 1390.48 922.679C1390.48 895.272 1392.51 873.448 1396.57 857.207C1401.65 840.966 1410.28 829.8 1422.46 823.709C1440.73 814.574 1465.09 810.006 1495.54 810.006ZM2524.63 353.222C2674.86 353.222 2805.29 407.529 2915.94 516.142C3026.58 624.755 3081.9 759.76 3081.9 921.156C3081.9 1081.54 3029.12 1218.57 2923.55 1332.26C2817.98 1444.93 2688.05 1501.27 2533.76 1501.27C2379.47 1501.27 2248.02 1445.44 2139.4 1333.78C2031.81 1222.13 1978.01 1089.15 1978.01 934.86C1978.01 850.609 1993.23 771.94 2023.69 698.855C2054.14 624.755 2094.74 562.835 2145.49 513.097C2196.25 463.358 2254.62 424.278 2320.6 395.855C2386.57 367.433 2454.58 353.222 2524.63 353.222ZM2247.51 927.247C2247.51 1017.59 2276.44 1091.18 2334.3 1148.03C2393.17 1203.85 2458.65 1231.77 2530.72 1231.77C2602.79 1231.77 2667.75 1204.36 2725.61 1149.55C2783.47 1094.73 2812.4 1021.14 2812.4 928.769C2812.4 836.398 2782.96 762.297 2724.09 706.468C2666.23 650.639 2601.26 622.725 2529.19 622.725C2457.12 622.725 2392.16 651.147 2334.3 707.991C2276.44 763.82 2247.51 836.905 2247.51 927.247ZM3450.97 1257.65H3865.12C3898.62 1257.65 3922.98 1261.71 3938.2 1269.83C3953.43 1276.94 3963.58 1288.61 3968.66 1304.85C3973.73 1321.1 3976.27 1342.92 3976.27 1370.33C3976.27 1396.72 3973.73 1418.04 3968.66 1434.28C3963.58 1450.52 3954.95 1461.68 3942.77 1467.77C3923.48 1477.92 3897.09 1483 3863.6 1483H3315.46C3244.4 1483 3202.78 1463.71 3190.6 1425.14C3184.51 1408.9 3181.47 1383.02 3181.47 1347.49V500.916C3181.47 477.569 3181.97 460.313 3182.99 449.147C3185.02 436.966 3190.09 423.262 3198.21 408.036C3212.43 380.629 3252.01 366.926 3316.98 366.926C3388.03 366.926 3430.16 385.705 3443.35 423.262C3448.43 440.519 3450.97 466.911 3450.97 502.438V1257.65ZM4210.62 365.403L4492.3 366.926C4639.49 366.926 4768.91 420.217 4880.57 526.8C4992.23 632.368 5048.06 762.805 5048.06 918.111C5048.06 1072.4 4993.24 1204.87 4883.61 1315.51C4775 1426.16 4643.04 1481.48 4487.74 1481.48H4209.1C4147.18 1481.48 4108.6 1468.79 4093.38 1443.41C4081.2 1422.1 4075.11 1389.61 4075.11 1345.96V499.393C4075.11 475.031 4075.61 457.267 4076.63 446.102C4078.66 434.936 4083.74 421.74 4091.86 406.514C4106.07 379.107 4145.66 365.403 4210.62 365.403ZM4492.3 1211.98C4565.39 1211.98 4631.37 1185.08 4690.24 1131.28C4749.12 1076.46 4778.55 1007.95 4778.55 925.724C4778.55 843.503 4749.62 774.986 4691.76 720.172C4634.92 664.343 4567.93 636.428 4490.78 636.428H4344.61V1211.98H4492.3ZM5416.68 1213.5H5885.65C5908.99 1213.5 5926.25 1214.51 5937.42 1216.54C5949.6 1217.56 5963.3 1222.13 5978.53 1230.25C6005.93 1244.46 6019.64 1284.05 6019.64 1349.01C6019.64 1420.07 6000.86 1461.68 5963.3 1473.86C5946.04 1479.95 5919.65 1483 5884.12 1483H5281.17C5210.11 1483 5168.5 1463.71 5156.32 1425.14C5150.23 1408.9 5147.18 1383.02 5147.18 1347.49V500.916C5147.18 449.147 5156.82 414.127 5176.11 395.855C5195.4 376.569 5231.94 366.926 5285.74 366.926H5885.65C5908.99 366.926 5926.25 367.941 5937.42 369.971C5949.6 370.986 5963.3 375.554 5978.53 383.675C6005.93 397.886 6019.64 437.474 6019.64 502.438C6019.64 573.493 6000.86 615.112 5963.3 627.292C5946.04 633.383 5919.65 636.428 5884.12 636.428H5416.68V790.212H5718.16C5741.51 790.212 5758.76 791.227 5769.93 793.257C5782.11 794.272 5795.81 798.84 5811.04 806.961C5838.45 821.172 5852.15 860.759 5852.15 925.724C5852.15 996.779 5832.86 1038.4 5794.29 1050.58C5777.03 1056.67 5750.64 1059.71 5715.11 1059.71H5416.68V1213.5ZM6838.34 414.127C6848.49 395.855 6863.21 383.675 6882.49 377.584C6901.78 371.494 6925.63 368.448 6954.06 368.448C6983.49 368.448 7006.84 370.986 7024.1 376.061C7042.37 381.137 7055.56 387.227 7063.68 394.333C7072.82 401.438 7079.42 412.097 7083.48 426.308C7089.57 442.549 7092.61 468.433 7092.61 503.961V1349.01C7092.61 1373.37 7091.6 1391.14 7089.57 1402.3C7088.55 1413.47 7083.99 1426.66 7075.86 1441.89C7061.65 1469.3 7022.07 1483 6957.1 1483C6917.51 1483 6890.11 1479.95 6874.88 1473.86C6859.65 1467.77 6846.97 1458.13 6836.81 1444.93C6608.42 1140.41 6458.19 941.458 6386.12 848.071V1349.01C6386.12 1373.37 6385.11 1391.14 6383.08 1402.3C6382.06 1413.47 6377.49 1426.66 6369.37 1441.89C6355.16 1469.3 6315.57 1483 6250.61 1483C6187.67 1483 6149.1 1469.3 6134.89 1441.89C6126.77 1426.66 6121.7 1412.96 6119.66 1400.78C6118.65 1388.6 6118.14 1370.83 6118.14 1347.49V497.87C6118.14 459.298 6122.71 431.383 6131.85 414.127C6142 395.855 6156.72 383.675 6176 377.584C6195.29 371.494 6220.16 368.448 6250.61 368.448C6281.06 368.448 6304.92 371.494 6322.17 377.584C6340.44 382.66 6353.13 388.75 6360.24 395.855C6364.3 398.901 6375.97 412.097 6395.26 435.443C6609.44 726.77 6752.56 919.126 6824.63 1012.51V497.87C6824.63 459.298 6829.2 431.383 6838.34 414.127Z" fill="black"/>
<path d="M7508.41 1089.71C7497.43 1076.19 7491.93 1064.15 7491.93 1053.59C7491.93 1042.61 7501.02 1028.25 7519.18 1010.51C7529.74 1000.37 7540.94 995.298 7552.76 995.298C7564.59 995.298 7581.07 1005.86 7602.19 1026.98C7608.1 1034.16 7616.55 1041.13 7627.54 1047.89C7638.52 1054.23 7648.66 1057.4 7657.95 1057.4C7697.24 1057.4 7716.88 1041.34 7716.88 1009.24C7716.88 999.522 7711.39 991.496 7700.4 985.159C7689.84 978.401 7676.54 973.543 7660.48 970.586C7644.43 967.629 7627.11 962.982 7608.53 956.645C7589.94 949.886 7572.62 942.071 7556.57 933.2C7540.51 924.329 7527 910.389 7516.01 891.38C7505.45 871.948 7500.17 848.714 7500.17 821.679C7500.17 784.505 7513.9 752.189 7541.36 724.731C7569.24 696.85 7607.05 682.91 7654.78 682.91C7680.13 682.91 7703.15 686.29 7723.85 693.049C7744.97 699.385 7759.54 705.933 7767.57 712.692L7783.41 724.731C7796.51 736.981 7803.06 747.331 7803.06 755.779C7803.06 764.228 7797.99 775.845 7787.85 790.63C7773.49 811.752 7758.7 822.312 7743.49 822.312C7734.62 822.312 7723.64 818.088 7710.54 809.639C7709.28 808.795 7706.74 806.682 7702.94 803.303C7699.56 799.924 7696.39 797.178 7693.43 795.066C7684.56 789.574 7673.16 786.828 7659.22 786.828C7645.7 786.828 7634.29 790.208 7625 796.967C7616.13 803.303 7611.69 812.385 7611.69 824.213C7611.69 835.619 7616.97 844.912 7627.54 852.094C7638.52 859.275 7652.04 864.133 7668.09 866.668C7684.14 869.202 7701.67 873.215 7720.68 878.707C7739.69 883.776 7757.22 890.112 7773.27 897.716C7789.33 905.32 7802.63 918.627 7813.19 937.636C7824.18 956.223 7829.67 979.245 7829.67 1006.7C7829.67 1034.16 7824.18 1058.45 7813.19 1079.57C7802.21 1100.27 7787.85 1116.32 7770.11 1127.73C7735.89 1150.12 7699.35 1161.31 7660.48 1161.31C7640.63 1161.31 7621.83 1158.99 7604.09 1154.34C7586.35 1149.27 7571.99 1143.15 7561 1135.97C7538.61 1122.45 7522.98 1109.35 7514.11 1096.68L7508.41 1089.71ZM8407.39 693.049C8435.69 703.187 8449.84 716.705 8449.84 733.602C8449.84 739.093 8447.3 749.443 8442.24 764.651L8320.58 1116.32C8319.73 1119.28 8318.25 1122.87 8316.14 1127.1C8314.03 1131.32 8308.33 1137.02 8299.03 1144.2C8290.16 1150.96 8279.39 1154.34 8266.72 1154.34C8254.47 1154.34 8243.69 1150.96 8234.4 1144.2C8225.53 1137.02 8219.61 1130.05 8216.66 1123.29L8142.52 904.686C8095.63 1043.24 8071.76 1113.79 8070.92 1116.32C8070.07 1118.86 8068.17 1122.45 8065.22 1127.1C8062.26 1131.74 8058.88 1135.97 8055.08 1139.77C8045.36 1149.48 8033.75 1154.34 8020.23 1154.34C8006.71 1154.34 7995.52 1151.17 7986.64 1144.84C7978.2 1138.5 7972.49 1132.17 7969.54 1125.83L7965.1 1116.32L7842.81 764.651C7838.16 750.71 7835.84 740.361 7835.84 733.602C7835.84 716.705 7849.99 703.398 7878.29 693.682C7890.54 689.458 7901.52 687.346 7911.24 687.346C7921.38 687.346 7928.98 690.725 7934.05 697.484C7939.54 704.243 7944.4 714.592 7948.63 728.533L8018.33 940.171L8087.39 731.701C8093.31 713.959 8104.08 701.708 8119.71 694.949C8126.47 691.992 8135.13 690.514 8145.69 690.514C8156.67 690.514 8166.81 694.105 8176.1 701.286C8185.4 708.045 8191.31 714.804 8193.85 721.563L8266.72 941.438L8336.42 728.533C8339.8 718.817 8342.54 711.635 8344.65 706.989C8346.77 702.342 8350.57 697.906 8356.06 693.682C8361.97 689.035 8369.16 686.712 8377.6 686.712C8386.05 686.712 8395.98 688.824 8407.39 693.049ZM8596.86 1042.82H8792.02C8801.74 1042.82 8808.92 1043.24 8813.57 1044.09C8818.64 1044.51 8824.34 1046.41 8830.68 1049.79C8842.08 1055.71 8847.78 1072.18 8847.78 1099.22C8847.78 1128.79 8839.97 1146.11 8824.34 1151.17C8817.16 1153.71 8806.17 1154.98 8791.39 1154.98H8540.47C8510.9 1154.98 8493.58 1146.95 8488.51 1130.9C8485.97 1124.14 8484.7 1113.37 8484.7 1098.58V746.275C8484.7 724.731 8488.72 710.157 8496.74 702.553C8504.77 694.527 8519.98 690.514 8542.37 690.514H8792.02C8801.74 690.514 8808.92 690.936 8813.57 691.781C8818.64 692.204 8824.34 694.105 8830.68 697.484C8842.08 703.398 8847.78 719.873 8847.78 746.908C8847.78 776.479 8839.97 793.798 8824.34 798.867C8817.16 801.402 8806.17 802.669 8791.39 802.669H8596.86V866.668H8722.32C8732.04 866.668 8739.22 867.09 8743.87 867.935C8748.94 868.357 8754.64 870.258 8760.97 873.638C8772.38 879.552 8778.08 896.027 8778.08 923.062C8778.08 952.632 8770.06 969.952 8754 975.021C8746.82 977.556 8735.84 978.823 8721.05 978.823H8596.86V1042.82ZM9000.93 1042.82H9196.1C9205.81 1042.82 9212.99 1043.24 9217.64 1044.09C9222.71 1044.51 9228.41 1046.41 9234.75 1049.79C9246.15 1055.71 9251.86 1072.18 9251.86 1099.22C9251.86 1128.79 9244.04 1146.11 9228.41 1151.17C9221.23 1153.71 9210.25 1154.98 9195.46 1154.98H8944.54C8914.97 1154.98 8897.65 1146.95 8892.58 1130.9C8890.05 1124.14 8888.78 1113.37 8888.78 1098.58V746.275C8888.78 724.731 8892.79 710.157 8900.82 702.553C8908.84 694.527 8924.05 690.514 8946.44 690.514H9196.1C9205.81 690.514 9212.99 690.936 9217.64 691.781C9222.71 692.204 9228.41 694.105 9234.75 697.484C9246.15 703.398 9251.86 719.873 9251.86 746.908C9251.86 776.479 9244.04 793.798 9228.41 798.867C9221.23 801.402 9210.25 802.669 9195.46 802.669H9000.93V866.668H9126.4C9136.11 866.668 9143.29 867.09 9147.94 867.935C9153.01 868.357 9158.71 870.258 9165.05 873.638C9176.45 879.552 9182.16 896.027 9182.16 923.062C9182.16 952.632 9174.13 969.952 9158.08 975.021C9150.9 977.556 9139.91 978.823 9125.13 978.823H9000.93V1042.82ZM9323.27 689.88H9675.57C9689.09 689.88 9699.02 691.57 9705.35 694.949C9711.69 697.906 9715.92 702.764 9718.03 709.523C9720.14 716.282 9721.2 725.153 9721.2 736.136C9721.2 747.12 9720.14 755.991 9718.03 762.75C9715.92 769.086 9712.32 773.522 9707.26 776.056C9699.65 779.858 9688.88 781.759 9674.94 781.759H9553.91V1100.48C9553.91 1110.2 9553.49 1117.38 9552.65 1122.03C9552.22 1126.67 9550.32 1132.17 9546.94 1138.5C9543.99 1144.42 9538.49 1148.64 9530.47 1151.17C9522.44 1153.71 9511.88 1154.98 9498.79 1154.98C9485.69 1154.98 9475.13 1153.71 9467.1 1151.17C9459.5 1148.64 9454.01 1144.42 9450.63 1138.5C9447.67 1132.17 9445.77 1126.67 9444.93 1122.03C9444.5 1116.96 9444.29 1109.57 9444.29 1099.85V781.759H9322.63C9309.11 781.759 9299.19 780.28 9292.85 777.323C9286.51 773.944 9282.29 768.875 9280.18 762.116C9278.07 755.357 9277.01 746.486 9277.01 735.503C9277.01 724.52 9278.07 715.86 9280.18 709.523C9282.29 702.764 9285.88 698.118 9290.95 695.583C9298.55 691.781 9309.33 689.88 9323.27 689.88Z" fill="black"/>
<path d="M942.656 2931.56L976.727 2906.96C1019.63 2881.72 1049.92 2869.1 1067.59 2869.1C1106.71 2869.1 1148.98 2904.43 1194.41 2975.1C1222.17 3019.27 1236.05 3054.6 1236.05 3081.1C1236.05 3107.6 1227.22 3129.68 1209.55 3147.35C1193.15 3165.02 1173.59 3180.79 1150.87 3194.67C1128.16 3208.55 1106.07 3221.8 1084.62 3234.42C1064.43 3247.04 1022.16 3263.45 957.799 3283.64C893.441 3303.83 830.975 3313.92 770.403 3313.92C711.093 3313.92 650.521 3306.35 588.686 3291.21C528.114 3274.81 465.018 3248.3 399.398 3211.71C335.04 3173.85 276.992 3128.42 225.253 3075.42C173.514 3021.16 130.609 2952.38 96.537 2869.1C63.727 2784.55 47.3221 2693.06 47.3221 2594.63C47.3221 2496.2 63.727 2407.23 96.537 2327.73C129.347 2246.97 170.99 2180.72 221.467 2128.98C273.206 2075.98 331.885 2031.81 397.505 1996.48C521.174 1928.33 645.473 1894.26 770.403 1894.26C829.714 1894.26 889.655 1903.73 950.227 1922.66C1012.06 1940.32 1058.75 1958.62 1090.3 1977.55L1135.73 2004.05C1158.44 2017.93 1176.11 2029.29 1188.73 2038.12C1221.54 2064.62 1237.95 2094.91 1237.95 2128.98C1237.95 2161.79 1224.7 2196.49 1198.19 2233.09C1148.98 2301.23 1104.81 2335.3 1065.69 2335.3C1042.98 2335.3 1010.8 2321.42 969.156 2293.66C916.155 2250.76 845.488 2229.3 757.153 2229.3C675.128 2229.3 594.365 2257.7 514.864 2314.48C477.006 2342.25 445.458 2381.36 420.22 2431.84C394.981 2482.32 382.362 2539.74 382.362 2604.09C382.362 2667.19 394.981 2723.98 420.22 2774.45C445.458 2824.93 477.637 2864.68 516.757 2893.7C593.734 2949.23 673.866 2976.99 757.153 2976.99C796.273 2976.99 832.868 2971.94 866.94 2961.85C902.274 2951.75 927.512 2941.66 942.656 2931.56ZM2422.34 3060.28C2441.27 3105.71 2450.74 3138.52 2450.74 3158.71C2450.74 3206.66 2411.62 3247.04 2333.38 3279.85C2293 3297.52 2260.19 3306.35 2234.95 3306.35C2210.97 3306.35 2190.78 3300.67 2174.37 3289.32C2159.23 3276.7 2147.87 3264.08 2140.3 3251.46C2127.68 3227.48 2078.47 3113.28 1992.66 2908.85L1933.98 2912.63H1695.48V3126.53C1695.48 3155.55 1694.21 3177.64 1691.69 3192.78C1690.43 3206.66 1684.75 3223.07 1674.65 3242C1656.99 3276.07 1607.77 3293.1 1527.01 3293.1C1438.67 3293.1 1386.94 3269.76 1371.79 3223.07C1364.22 3201.61 1360.44 3168.8 1360.44 3124.64V2074.09C1360.44 2045.06 1361.07 2023.61 1362.33 2009.73C1364.85 1994.59 1371.16 1977.55 1381.26 1958.62C1398.92 1924.55 1448.14 1907.51 1528.9 1907.51H1937.76C2048.81 1907.51 2156.71 1947.89 2261.45 2028.66C2311.92 2067.78 2353.57 2120.78 2386.38 2187.66C2419.19 2254.54 2435.59 2329 2435.59 2411.02C2435.59 2553.62 2388.27 2670.98 2293.63 2763.1C2321.39 2829.98 2364.29 2929.04 2422.34 3060.28ZM1695.48 2577.59H1937.76C1974.36 2577.59 2010.96 2563.71 2047.55 2535.95C2084.15 2508.19 2102.45 2466.54 2102.45 2411.02C2102.45 2355.5 2084.15 2313.85 2047.55 2286.09C2010.96 2257.07 1973.1 2242.55 1933.98 2242.55H1695.48V2577.59ZM2889.62 2959.96H3472.63C3501.65 2959.96 3523.1 2961.22 3536.98 2963.74C3552.13 2965 3569.16 2970.68 3588.09 2980.78C3622.16 2998.44 3639.2 3047.66 3639.2 3128.42C3639.2 3216.76 3615.85 3268.5 3569.16 3283.64C3547.71 3291.21 3514.9 3295 3470.73 3295H2721.15C2632.82 3295 2581.08 3271.02 2565.94 3223.07C2558.36 3202.88 2554.58 3170.7 2554.58 3126.53V2074.09C2554.58 2009.73 2566.57 1966.19 2590.54 1943.48C2614.52 1919.5 2659.95 1907.51 2726.83 1907.51H3472.63C3501.65 1907.51 3523.1 1908.78 3536.98 1911.3C3552.13 1912.56 3569.16 1918.24 3588.09 1928.33C3622.16 1946 3639.2 1995.22 3639.2 2075.98C3639.2 2164.31 3615.85 2216.05 3569.16 2231.2C3547.71 2238.77 3514.9 2242.55 3470.73 2242.55H2889.62V2433.73H3264.41C3293.43 2433.73 3314.89 2435 3328.77 2437.52C3343.91 2438.78 3360.95 2444.46 3379.87 2454.56C3413.95 2472.22 3430.98 2521.44 3430.98 2602.2C3430.98 2690.54 3407.01 2742.27 3359.05 2757.42C3337.6 2764.99 3304.79 2768.77 3260.62 2768.77H2889.62V2959.96ZM4562.35 2005.94L5073.43 3062.17C5094.88 3105.08 5105.61 3137.26 5105.61 3158.71C5105.61 3204.14 5069.01 3245.15 4995.82 3281.75C4952.91 3303.2 4918.84 3313.92 4893.6 3313.92C4869.63 3313.92 4849.44 3308.25 4833.03 3296.89C4817.89 3285.53 4806.53 3273.54 4798.96 3260.92C4792.65 3248.3 4783.19 3229.38 4770.57 3204.14L4672.14 2999.71H4147.81L4049.38 3204.14C4036.76 3229.38 4026.66 3247.67 4019.09 3259.03C4012.78 3270.39 4001.43 3282.38 3985.02 3295C3969.88 3306.35 3949.69 3312.03 3924.45 3312.03C3900.47 3312.03 3867.03 3301.31 3824.13 3279.85C3750.93 3244.52 3714.34 3204.14 3714.34 3158.71C3714.34 3137.26 3725.06 3105.08 3746.52 3062.17L4257.6 2004.05C4271.48 1975.03 4292.3 1951.68 4320.06 1934.01C4349.08 1916.35 4379.37 1907.51 4410.92 1907.51C4479.06 1907.51 4529.54 1940.32 4562.35 2005.94ZM4409.03 2460.23L4284.1 2719.56H4535.85L4409.03 2460.23ZM4946.84 1905.62H5999.28C6039.67 1905.62 6069.32 1910.67 6088.25 1920.76C6107.18 1929.6 6119.8 1944.11 6126.11 1964.3C6132.42 1984.49 6135.57 2010.99 6135.57 2043.8C6135.57 2076.61 6132.42 2103.11 6126.11 2123.3C6119.8 2142.23 6109.07 2155.48 6093.93 2163.05C6071.21 2174.41 6039.03 2180.09 5997.39 2180.09H5635.85V3132.21C5635.85 3161.23 5634.59 3182.69 5632.06 3196.57C5630.8 3210.45 5625.12 3226.85 5615.03 3245.78C5606.2 3263.45 5589.79 3276.07 5565.81 3283.64C5541.84 3291.21 5510.29 3295 5471.17 3295C5432.05 3295 5400.5 3291.21 5376.53 3283.64C5353.81 3276.07 5337.41 3263.45 5327.31 3245.78C5318.48 3226.85 5312.8 3210.45 5310.27 3196.57C5309.01 3181.42 5308.38 3159.34 5308.38 3130.32V2180.09H4944.95C4904.57 2180.09 4874.91 2175.67 4855.98 2166.84C4837.05 2156.74 4824.43 2141.6 4818.13 2121.41C4811.82 2101.22 4808.66 2074.72 4808.66 2041.91C4808.66 2009.1 4811.82 1983.23 4818.13 1964.3C4824.43 1944.11 4835.16 1930.23 4850.3 1922.66C4873.02 1911.3 4905.2 1905.62 4946.84 1905.62ZM6240.52 2074.09C6240.52 2045.06 6241.15 2023.61 6242.42 2009.73C6244.94 1994.59 6251.25 1977.55 6261.34 1958.62C6279.01 1924.55 6328.23 1907.51 6408.99 1907.51C6497.32 1907.51 6549.69 1930.86 6566.1 1977.55C6572.41 1999 6575.56 2031.81 6575.56 2075.98V3128.42C6575.56 3158.71 6574.3 3180.79 6571.78 3194.67C6570.52 3208.55 6564.84 3224.96 6554.74 3243.89C6537.07 3277.96 6487.86 3295 6407.1 3295C6318.76 3295 6267.02 3271.02 6251.88 3223.07C6244.31 3202.88 6240.52 3170.7 6240.52 3126.53V2074.09ZM7377.83 1890.48C7564.6 1890.48 7726.76 1957.99 7864.31 2093.02C8001.85 2228.04 8070.63 2395.88 8070.63 2596.52C8070.63 2795.91 8005.01 2966.27 7873.77 3107.6C7742.53 3247.67 7581 3317.71 7389.19 3317.71C7197.38 3317.71 7033.96 3248.3 6898.94 3109.49C6765.17 2970.68 6698.29 2805.37 6698.29 2613.56C6698.29 2508.82 6717.22 2411.02 6755.08 2320.16C6792.93 2228.04 6843.41 2151.06 6906.51 2089.23C6969.6 2027.4 7042.16 1978.81 7124.19 1943.48C7206.21 1908.14 7290.76 1890.48 7377.83 1890.48ZM7033.33 2604.09C7033.33 2716.4 7069.29 2807.89 7141.22 2878.56C7214.42 2947.97 7295.81 2982.67 7385.41 2982.67C7475 2982.67 7555.77 2948.6 7627.7 2880.45C7699.62 2812.31 7735.59 2720.82 7735.59 2605.99C7735.59 2491.15 7698.99 2399.03 7625.8 2329.63C7553.87 2260.22 7473.11 2225.52 7383.51 2225.52C7293.92 2225.52 7213.15 2260.85 7141.22 2331.52C7069.29 2400.92 7033.33 2491.78 7033.33 2604.09ZM9089.74 1966.19C9102.36 1943.48 9120.66 1928.33 9144.63 1920.76C9168.61 1913.19 9198.26 1909.41 9233.6 1909.41C9270.19 1909.41 9299.22 1912.56 9320.67 1918.87C9343.39 1925.18 9359.79 1932.75 9369.89 1941.59C9381.24 1950.42 9389.45 1963.67 9394.49 1981.34C9402.07 2001.53 9405.85 2033.71 9405.85 2077.87V3128.42C9405.85 3158.71 9404.59 3180.79 9402.07 3194.67C9400.8 3208.55 9395.12 3224.96 9385.03 3243.89C9367.36 3277.96 9318.15 3295 9237.38 3295C9188.17 3295 9154.1 3291.21 9135.17 3283.64C9116.24 3276.07 9100.47 3264.08 9087.85 3247.67C8803.91 2869.1 8617.15 2621.76 8527.55 2505.66V3128.42C8527.55 3158.71 8526.29 3180.79 8523.77 3194.67C8522.51 3208.55 8516.83 3224.96 8506.73 3243.89C8489.06 3277.96 8439.85 3295 8359.09 3295C8280.85 3295 8232.89 3277.96 8215.23 3243.89C8205.13 3224.96 8198.82 3207.92 8196.3 3192.78C8195.04 3177.64 8194.41 3155.55 8194.41 3126.53V2070.3C8194.41 2022.35 8200.08 1987.65 8211.44 1966.19C8224.06 1943.48 8242.36 1928.33 8266.34 1920.76C8290.31 1913.19 8321.23 1909.41 8359.09 1909.41C8396.94 1909.41 8426.6 1913.19 8448.05 1920.76C8470.77 1927.07 8486.54 1934.64 8495.37 1943.48C8500.42 1947.26 8514.93 1963.67 8538.91 1992.69C8805.18 2354.86 8983.11 2594 9072.7 2710.1V2070.3C9072.7 2022.35 9078.38 1987.65 9089.74 1966.19ZM9577.59 3100.03C9544.78 3059.65 9528.37 3023.68 9528.37 2992.13C9528.37 2959.32 9555.5 2916.42 9609.76 2863.42C9641.31 2833.13 9674.75 2817.99 9710.09 2817.99C9745.42 2817.99 9794.64 2849.54 9857.73 2912.63C9875.4 2934.09 9900.64 2954.91 9933.45 2975.1C9966.26 2994.03 9996.54 3003.49 10024.3 3003.49C10141.7 3003.49 10200.3 2955.54 10200.3 2859.63C10200.3 2830.61 10183.9 2806.63 10151.1 2787.7C10119.6 2767.51 10079.8 2753 10031.9 2744.17C9983.92 2735.33 9932.19 2721.45 9876.66 2702.52C9821.14 2682.33 9769.4 2658.99 9721.44 2632.49C9673.49 2605.99 9633.11 2564.34 9600.3 2507.56C9568.75 2449.51 9552.98 2380.1 9552.98 2299.34C9552.98 2188.29 9593.99 2091.75 9676.02 2009.73C9759.3 1926.44 9872.24 1884.8 10014.8 1884.8C10090.6 1884.8 10159.3 1894.89 10221.2 1915.08C10284.3 1934.01 10327.8 1953.57 10351.8 1973.76L10399.1 2009.73C10438.2 2046.32 10457.8 2077.24 10457.8 2102.48C10457.8 2127.72 10442.6 2162.42 10412.3 2206.59C10369.4 2269.68 10325.3 2301.23 10279.8 2301.23C10253.3 2301.23 10220.5 2288.61 10181.4 2263.38C10177.6 2260.85 10170.1 2254.54 10158.7 2244.45C10148.6 2234.35 10139.1 2226.15 10130.3 2219.84C10103.8 2203.43 10069.7 2195.23 10028.1 2195.23C9987.71 2195.23 9953.64 2205.33 9925.88 2225.52C9899.38 2244.45 9886.13 2271.58 9886.13 2306.91C9886.13 2340.98 9901.9 2368.75 9933.45 2390.2C9966.26 2411.65 10006.6 2426.16 10054.6 2433.73C10102.5 2441.31 10154.9 2453.29 10211.7 2469.7C10268.5 2484.84 10320.9 2503.77 10368.8 2526.49C10416.8 2549.2 10456.5 2588.95 10488.1 2645.74C10520.9 2701.26 10537.3 2770.04 10537.3 2852.06C10537.3 2934.09 10520.9 3006.65 10488.1 3069.74C10455.3 3131.58 10412.3 3179.53 10359.3 3213.6C10257.1 3280.48 10148 3313.92 10031.9 3313.92C9972.57 3313.92 9916.41 3306.98 9863.41 3293.1C9810.41 3277.96 9767.51 3259.66 9734.7 3238.21C9667.81 3197.83 9621.12 3158.71 9594.62 3120.85L9577.59 3100.03Z" fill="black"/>
<path d="M5237.33 1969.84C5302.9 1982.26 5360.42 1979.94 5409.88 1962.89C5460.25 1946.02 5500.97 1917.88 5532.02 1878.47C5563.98 1839.24 5585.22 1791.84 5595.74 1736.28C5596.26 1733.55 5596.69 1731.27 5597.04 1729.45C5568.53 1715.56 5541.37 1699.56 5515.55 1681.46C5489.73 1663.37 5469.72 1644.48 5455.52 1624.81C5468.97 1588.67 5489.41 1560.46 5516.84 1540.19C5544.44 1519 5570.99 1510.82 5596.49 1515.65C5615.62 1519.27 5636.1 1530.7 5657.93 1549.93C5679.76 1569.16 5695.51 1598.09 5705.18 1636.71C5729.2 1639.38 5756.59 1641.73 5787.34 1643.78C5818.99 1646.01 5845.53 1645.37 5866.95 1641.88C5874.04 1659.26 5878.24 1679.4 5879.57 1702.29C5881.97 1724.45 5880.46 1744.92 5875.01 1763.7C5854.85 1765.54 5830.13 1766.52 5800.86 1766.64C5772.68 1766.02 5742.02 1763.51 5708.88 1759.12C5707.85 1764.59 5706.72 1770.51 5705.52 1776.89C5692.75 1844.29 5665.73 1904.74 5624.46 1958.25C5583.19 2011.76 5528.05 2051.32 5459.05 2076.93C5390.21 2101.63 5307.52 2104.84 5210.97 2086.55C5132.64 2071.72 5067.2 2046.11 5014.65 2009.74C4963.19 1972.63 4926.28 1928.38 4903.94 1876.97C4882.51 1825.74 4877.4 1770.52 4888.61 1711.32C4907.07 1613.86 4960.3 1547.05 5048.29 1510.88C4979.27 1446.86 4954 1366.12 4972.46 1268.66C4983.15 1212.19 5006.04 1166.05 5041.13 1130.24C5077.3 1093.69 5122.59 1068.78 5177 1055.49C5232.49 1041.47 5294.39 1040.93 5362.7 1053.87C5449.23 1070.26 5516.19 1102.76 5563.59 1151.36C5612.08 1199.23 5638.99 1261.41 5644.31 1337.89C5609.77 1355.88 5566.09 1359.87 5513.26 1349.87C5510.95 1302.26 5494.28 1263.25 5463.25 1232.84C5432.39 1201.52 5389.63 1180.68 5334.98 1170.33C5273.96 1158.77 5222.01 1164.03 5179.15 1186.1C5136.46 1207.27 5110.37 1242.89 5100.88 1292.99C5091.91 1340.35 5101.97 1381.88 5131.06 1417.58C5161.06 1453.46 5204.3 1476.74 5260.77 1487.44L5320.88 1498.82C5323.58 1514.43 5322.69 1534.08 5318.21 1557.76C5314.63 1581.61 5309.36 1599.48 5302.39 1611.37L5239.55 1599.47C5185.81 1589.29 5137.96 1595.32 5096.01 1617.57C5054.06 1639.81 5028.25 1676.44 5018.59 1727.44C5007.03 1788.47 5020.74 1840.6 5059.73 1883.83C5099.8 1926.33 5159 1955 5237.33 1969.84Z" fill="#C71E4D"/>
</svg>
